<svg width="152" height="40" viewBox="0 0 152 40" fill="none" xmlns="http://www.w3.org/2000/svg">
<path fill-rule="evenodd" clip-rule="evenodd" d="M25.5557 11.6853C23.9112 10.5865 21.9778 10 20 10V0C23.9556 0 27.8224 1.17298 31.1114 3.37061C34.4004 5.56823 36.9638 8.69181 38.4776 12.3463C39.9913 16.0008 40.3874 20.0222 39.6157 23.9018C38.844 27.7814 36.9392 31.3451 34.1421 34.1421C31.3451 36.9392 27.7814 38.844 23.9018 39.6157C20.0222 40.3874 16.0008 39.9913 12.3463 38.4776C8.6918 36.9638 5.56823 34.4004 3.37061 31.1114C1.17298 27.8224 0 23.9556 0 20H10C10 21.9778 10.5865 23.9112 11.6853 25.5557C12.7841 27.2002 14.3459 28.4819 16.1732 29.2388C18.0004 29.9957 20.0111 30.1937 21.9509 29.8078C23.8907 29.422 25.6725 28.4696 27.0711 27.0711C28.4696 25.6725 29.422 23.8907 29.8078 21.9509C30.1937 20.0111 29.9957 18.0004 29.2388 16.1732C28.4819 14.3459 27.2002 12.7841 25.5557 11.6853Z" fill="white"/>
<path d="M53.2955 32V8.72727H68.2045V12.2614H57.5114V18.5795H67.1818V22.1136H57.5114V32H53.2955ZM71.8636 32V14.5455H75.9773V32H71.8636ZM73.9318 12.0682C73.2803 12.0682 72.7197 11.8523 72.25 11.4205C71.7803 10.9811 71.5455 10.4545 71.5455 9.84091C71.5455 9.2197 71.7803 8.69318 72.25 8.26136C72.7197 7.82197 73.2803 7.60227 73.9318 7.60227C74.5909 7.60227 75.1515 7.82197 75.6136 8.26136C76.0833 8.69318 76.3182 9.2197 76.3182 9.84091C76.3182 10.4545 76.0833 10.9811 75.6136 11.4205C75.1515 11.8523 74.5909 12.0682 73.9318 12.0682ZM84.321 21.7727V32H80.2074V14.5455H84.1392V17.5114H84.3438C84.7453 16.5341 85.3854 15.7576 86.2642 15.1818C87.1506 14.6061 88.2453 14.3182 89.5483 14.3182C90.7528 14.3182 91.8021 14.5758 92.696 15.0909C93.5975 15.6061 94.2945 16.3523 94.7869 17.3295C95.2869 18.3068 95.5331 19.4924 95.5256 20.8864V32H91.4119V21.5227C91.4119 20.3561 91.1089 19.4432 90.5028 18.7841C89.9044 18.125 89.0748 17.7955 88.0142 17.7955C87.2945 17.7955 86.6544 17.9545 86.0938 18.2727C85.5407 18.5833 85.1051 19.0341 84.7869 19.625C84.4763 20.2159 84.321 20.9318 84.321 21.7727ZM99.8892 32V8.72727H115.026V12.2614H104.105V18.5795H114.241V22.1136H104.105V28.4659H115.116V32H99.8892ZM125.622 32.3068C124.251 32.3068 123.024 31.9545 121.94 31.25C120.857 30.5455 120.001 29.5227 119.372 28.1818C118.743 26.8409 118.429 25.2121 118.429 23.2955C118.429 21.3561 118.747 19.7197 119.384 18.3864C120.027 17.0455 120.895 16.0341 121.986 15.3523C123.077 14.6629 124.293 14.3182 125.634 14.3182C126.656 14.3182 127.497 14.4924 128.156 14.8409C128.815 15.1818 129.338 15.5947 129.724 16.0795C130.111 16.5568 130.41 17.0076 130.622 17.4318H130.793V8.72727H134.918V32H130.872V29.25H130.622C130.41 29.6742 130.103 30.125 129.702 30.6023C129.3 31.072 128.77 31.4735 128.111 31.8068C127.452 32.1402 126.622 32.3068 125.622 32.3068ZM126.77 28.9318C127.641 28.9318 128.384 28.697 128.997 28.2273C129.611 27.75 130.077 27.0871 130.395 26.2386C130.713 25.3902 130.872 24.4015 130.872 23.2727C130.872 22.1439 130.713 21.1629 130.395 20.3295C130.084 19.4962 129.622 18.8485 129.009 18.3864C128.402 17.9242 127.656 17.6932 126.77 17.6932C125.853 17.6932 125.088 17.9318 124.474 18.4091C123.861 18.8864 123.399 19.5455 123.088 20.3864C122.777 21.2273 122.622 22.1894 122.622 23.2727C122.622 24.3636 122.777 25.3371 123.088 26.1932C123.406 27.0417 123.872 27.7121 124.486 28.2045C125.107 28.6894 125.868 28.9318 126.77 28.9318Z" fill="white"/>
</svg>